<svg width="16" height="16" viewBox="0 0 16 16" fill="none" xmlns="http://www.w3.org/2000/svg">
<path d="M14.2933 7.36665L8.16664 13.4933C7.41607 14.2439 6.39809 14.6655 5.33664 14.6655C4.27518 14.6655 3.2572 14.2439 2.50664 13.4933C1.75607 12.7428 1.33441 11.7248 1.33441 10.6633C1.33441 9.60186 1.75607 8.58388 2.50664 7.83332L8.6333 1.70665C9.13368 1.20628 9.81233 0.925171 10.52 0.925171C11.2276 0.925171 11.9063 1.20628 12.4066 1.70665C12.907 2.20703 13.1881 2.88568 13.1881 3.59332C13.1881 4.30096 12.907 4.97961 12.4066 5.47999L6.2733 11.6067C6.02312 11.8568 5.68379 11.9974 5.32997 11.9974C4.97615 11.9974 4.63682 11.8568 4.38664 11.6067C4.13645 11.3565 3.99589 11.0171 3.99589 10.6633C3.99589 10.3095 4.13645 9.97017 4.38664 9.71999L10.0466 4.06665" stroke="#606060" stroke-width="2" stroke-linecap="round" stroke-linejoin="round"/>
</svg>
