<svg width="236" height="50" viewBox="0 0 236 50" fill="none" xmlns="http://www.w3.org/2000/svg">
<rect width="236" height="50" rx="9" fill="#007DA2"/>
<path d="M92.6631 31H85.2627V18.1504H92.6631V20.3828H87.9873V23.2041H92.3379V25.4365H87.9873V28.75H92.6631V31ZM106.952 31H103.489L97.8992 21.2793H97.8201C97.9314 22.9961 97.9871 24.2207 97.9871 24.9531V31H95.5525V18.1504H98.9891L104.57 27.7744H104.632C104.544 26.1045 104.5 24.9238 104.5 24.2324V18.1504H106.952V31ZM117.725 18.1504H120.476L116.108 31H113.137L108.778 18.1504H111.529L113.946 25.7969C114.081 26.248 114.218 26.7754 114.359 27.3789C114.505 27.9766 114.596 28.3926 114.631 28.627C114.696 28.0879 114.916 27.1445 115.291 25.7969L117.725 18.1504ZM122.302 31V18.1504H125.027V31H122.302ZM136.327 31L135.396 27.9414H130.711L129.779 31H126.844L131.379 18.0977H134.71L139.263 31H136.327ZM134.745 25.6562C133.884 22.8848 133.398 21.3174 133.286 20.9541C133.181 20.5908 133.105 20.3037 133.058 20.0928C132.864 20.8428 132.311 22.6973 131.397 25.6562H134.745ZM143.813 23.8545H144.692C145.554 23.8545 146.189 23.7109 146.6 23.4238C147.01 23.1367 147.215 22.6855 147.215 22.0703C147.215 21.4609 147.004 21.0273 146.582 20.7695C146.166 20.5117 145.519 20.3828 144.64 20.3828H143.813V23.8545ZM143.813 26.0693V31H141.089V18.1504H144.833C146.579 18.1504 147.871 18.4697 148.709 19.1084C149.547 19.7412 149.966 20.7051 149.966 22C149.966 22.7559 149.758 23.4297 149.342 24.0215C148.926 24.6074 148.337 25.0674 147.575 25.4014C149.509 28.29 150.769 30.1562 151.354 31H148.331L145.264 26.0693H143.813Z" fill="white"/>
</svg>
