<svg width="32" height="27" viewBox="0 0 32 27" fill="none" xmlns="http://www.w3.org/2000/svg">
<rect width="32" height="27" rx="5" fill="#F6F6F6"/>
<rect x="0.5" y="0.5" width="31" height="26" rx="4.5" stroke="#3E3E3E" stroke-opacity="0.38"/>
<g clip-path="url(#clip0_411:166)">
<path d="M22.2933 13.3667L16.1666 19.4933C15.4161 20.2439 14.3981 20.6655 13.3366 20.6655C12.2752 20.6655 11.2572 20.2439 10.5066 19.4933C9.75607 18.7428 9.33441 17.7248 9.33441 16.6633C9.33441 15.6019 9.75607 14.5839 10.5066 13.8333L16.6333 7.70665C17.1337 7.20628 17.8123 6.92517 18.52 6.92517C19.2276 6.92517 19.9063 7.20628 20.4066 7.70665C20.907 8.20703 21.1881 8.88568 21.1881 9.59332C21.1881 10.301 20.907 10.9796 20.4066 11.48L14.2733 17.6067C14.0231 17.8568 13.6838 17.9974 13.33 17.9974C12.9762 17.9974 12.6368 17.8568 12.3866 17.6067C12.1364 17.3565 11.9959 17.0171 11.9959 16.6633C11.9959 16.3095 12.1364 15.9702 12.3866 15.72L18.0466 10.0667" stroke="#606060" stroke-width="2" stroke-linecap="round" stroke-linejoin="round"/>
</g>
<defs>
<clipPath id="clip0_411:166">
<rect width="16" height="16" fill="white" transform="translate(8 6)"/>
</clipPath>
</defs>
</svg>
