<svg width="85" height="20" viewBox="0 0 85 20" fill="none" xmlns="http://www.w3.org/2000/svg">
<path d="M5.95312 15H1.17773V6.43359H5.95312V7.31836H2.17383V10.0781H5.72461V10.957H2.17383V14.1094H5.95312V15ZM7.37187 12.2285V11.3379H10.2488V12.2285H7.37187ZM20.1637 15V10.8223C20.1637 10.3105 20.0543 9.92773 19.8355 9.67383C19.6168 9.41602 19.277 9.28711 18.816 9.28711C18.2105 9.28711 17.7633 9.46094 17.4742 9.80859C17.1852 10.1562 17.0406 10.6914 17.0406 11.4141V15H16.068V10.8223C16.068 10.3105 15.9586 9.92773 15.7398 9.67383C15.5211 9.41602 15.1793 9.28711 14.7145 9.28711C14.1051 9.28711 13.6578 9.4707 13.3727 9.83789C13.0914 10.2012 12.9508 10.7988 12.9508 11.6309V15H11.9781V8.57812H12.7691L12.9273 9.45703H12.9742C13.1578 9.14453 13.4156 8.90039 13.7477 8.72461C14.0836 8.54883 14.4586 8.46094 14.8727 8.46094C15.8766 8.46094 16.5328 8.82422 16.8414 9.55078H16.8883C17.0797 9.21484 17.357 8.94922 17.7203 8.75391C18.0836 8.55859 18.4977 8.46094 18.9625 8.46094C19.6891 8.46094 20.232 8.64844 20.5914 9.02344C20.9547 9.39453 21.1363 9.99023 21.1363 10.8105V15H20.1637ZM27.2953 15L27.102 14.0859H27.0551C26.7348 14.4883 26.4145 14.7617 26.0941 14.9062C25.7777 15.0469 25.3813 15.1172 24.9047 15.1172C24.268 15.1172 23.768 14.9531 23.4047 14.625C23.0453 14.2969 22.8656 13.8301 22.8656 13.2246C22.8656 11.9277 23.9027 11.248 25.977 11.1855L27.0668 11.1504V10.752C27.0668 10.248 26.9574 9.87695 26.7387 9.63867C26.5238 9.39648 26.1781 9.27539 25.7016 9.27539C25.1664 9.27539 24.5609 9.43945 23.8852 9.76758L23.5863 9.02344C23.9027 8.85156 24.2484 8.7168 24.6234 8.61914C25.0023 8.52148 25.3813 8.47266 25.7602 8.47266C26.5258 8.47266 27.0922 8.64258 27.4594 8.98242C27.8305 9.32227 28.016 9.86719 28.016 10.6172V15H27.2953ZM25.098 14.3145C25.7035 14.3145 26.1781 14.1484 26.5219 13.8164C26.8695 13.4844 27.0434 13.0195 27.0434 12.4219V11.8418L26.0707 11.8828C25.2973 11.9102 24.7387 12.0312 24.3949 12.2461C24.0551 12.457 23.8852 12.7871 23.8852 13.2363C23.8852 13.5879 23.9906 13.8555 24.2016 14.0391C24.4164 14.2227 24.7152 14.3145 25.098 14.3145ZM31.1984 15H30.2258V8.57812H31.1984V15ZM30.1437 6.83789C30.1437 6.61523 30.1984 6.45312 30.3078 6.35156C30.4172 6.24609 30.5539 6.19336 30.718 6.19336C30.8742 6.19336 31.009 6.24609 31.1223 6.35156C31.2355 6.45703 31.2922 6.61914 31.2922 6.83789C31.2922 7.05664 31.2355 7.2207 31.1223 7.33008C31.009 7.43555 30.8742 7.48828 30.718 7.48828C30.5539 7.48828 30.4172 7.43555 30.3078 7.33008C30.1984 7.2207 30.1437 7.05664 30.1437 6.83789ZM34.4336 15H33.4609V5.88281H34.4336V15Z" fill="#ACACAC"/>
</svg>
