<svg width="295" height="13" viewBox="0 0 295 13" fill="none" xmlns="http://www.w3.org/2000/svg">
<path d="M8.61328 5.70508C8.61328 7.07617 8.26562 8.1543 7.57031 8.93945C6.87891 9.72461 5.91602 10.1172 4.68164 10.1172C3.41992 10.1172 2.44531 9.73242 1.75781 8.96289C1.07422 8.18945 0.732422 7.09961 0.732422 5.69336C0.732422 4.29883 1.07617 3.21875 1.76367 2.45312C2.45117 1.68359 3.42773 1.29883 4.69336 1.29883C5.92383 1.29883 6.88477 1.68945 7.57617 2.4707C8.26758 3.25195 8.61328 4.33008 8.61328 5.70508ZM1.78711 5.70508C1.78711 6.86523 2.0332 7.74609 2.52539 8.34766C3.02148 8.94531 3.74023 9.24414 4.68164 9.24414C5.63086 9.24414 6.34766 8.94531 6.83203 8.34766C7.31641 7.75 7.55859 6.86914 7.55859 5.70508C7.55859 4.55273 7.31641 3.67969 6.83203 3.08594C6.35156 2.48828 5.63867 2.18945 4.69336 2.18945C3.74414 2.18945 3.02148 2.49023 2.52539 3.0918C2.0332 3.68945 1.78711 4.56055 1.78711 5.70508ZM16.4664 10.1172C15.5367 10.1172 14.816 9.83203 14.3043 9.26172C13.7965 8.6875 13.5426 7.87695 13.5426 6.83008C13.5426 5.75586 13.8004 4.92578 14.316 4.33984C14.8355 3.75391 15.5738 3.46094 16.5309 3.46094C16.8395 3.46094 17.148 3.49414 17.4566 3.56055C17.7652 3.62695 18.0074 3.70508 18.1832 3.79492L17.8844 4.62109C17.6695 4.53516 17.4352 4.46484 17.1812 4.41016C16.9273 4.35156 16.7027 4.32227 16.5074 4.32227C15.2027 4.32227 14.5504 5.1543 14.5504 6.81836C14.5504 7.60742 14.7086 8.21289 15.025 8.63477C15.3453 9.05664 15.818 9.26758 16.443 9.26758C16.9781 9.26758 17.527 9.15234 18.0895 8.92188V9.7832C17.6598 10.0059 17.1187 10.1172 16.4664 10.1172ZM20.7914 10H19.8188V0.882812H20.7914V10ZM24.0266 10H23.0539V3.57812H24.0266V10ZM22.9719 1.83789C22.9719 1.61523 23.0266 1.45312 23.1359 1.35156C23.2453 1.24609 23.382 1.19336 23.5461 1.19336C23.7023 1.19336 23.8371 1.24609 23.9504 1.35156C24.0637 1.45703 24.1203 1.61914 24.1203 1.83789C24.1203 2.05664 24.0637 2.2207 23.9504 2.33008C23.8371 2.43555 23.7023 2.48828 23.5461 2.48828C23.382 2.48828 23.2453 2.43555 23.1359 2.33008C23.0266 2.2207 22.9719 2.05664 22.9719 1.83789ZM29.002 10.1172C28.0527 10.1172 27.3027 9.82812 26.752 9.25C26.2051 8.67188 25.9316 7.86914 25.9316 6.8418C25.9316 5.80664 26.1855 4.98438 26.6934 4.375C27.2051 3.76562 27.8906 3.46094 28.75 3.46094C29.5547 3.46094 30.1914 3.72656 30.6602 4.25781C31.1289 4.78516 31.3633 5.48242 31.3633 6.34961V6.96484H26.9395C26.959 7.71875 27.1484 8.29102 27.5078 8.68164C27.8711 9.07227 28.3809 9.26758 29.0371 9.26758C29.7285 9.26758 30.4121 9.12305 31.0879 8.83398V9.70117C30.7441 9.84961 30.418 9.95508 30.1094 10.0176C29.8047 10.084 29.4355 10.1172 29.002 10.1172ZM28.7383 4.27539C28.2227 4.27539 27.8105 4.44336 27.502 4.7793C27.1973 5.11523 27.0176 5.58008 26.9629 6.17383H30.3203C30.3203 5.56055 30.1836 5.0918 29.9102 4.76758C29.6367 4.43945 29.2461 4.27539 28.7383 4.27539ZM37.6219 10V5.8457C37.6219 5.32227 37.5027 4.93164 37.2645 4.67383C37.0262 4.41602 36.6531 4.28711 36.1453 4.28711C35.4734 4.28711 34.9813 4.46875 34.6688 4.83203C34.3563 5.19531 34.2 5.79492 34.2 6.63086V10H33.2273V3.57812H34.0184L34.1766 4.45703H34.2234C34.4227 4.14062 34.702 3.89648 35.0613 3.72461C35.4207 3.54883 35.8211 3.46094 36.2625 3.46094C37.0359 3.46094 37.618 3.64844 38.0086 4.02344C38.3992 4.39453 38.5945 4.99023 38.5945 5.81055V10H37.6219ZM42.8727 9.31445C43.0445 9.31445 43.2105 9.30273 43.3707 9.2793C43.5309 9.25195 43.6578 9.22461 43.7516 9.19727V9.94141C43.6461 9.99219 43.4898 10.0332 43.2828 10.0645C43.0797 10.0996 42.8961 10.1172 42.732 10.1172C41.4898 10.1172 40.8688 9.46289 40.8688 8.1543V4.33398H39.9488V3.86523L40.8688 3.46094L41.2789 2.08984H41.8414V3.57812H43.7047V4.33398H41.8414V8.11328C41.8414 8.5 41.9332 8.79688 42.1168 9.00391C42.3004 9.21094 42.5523 9.31445 42.8727 9.31445ZM47.9535 10.1172C47.0043 10.1172 46.2543 9.82812 45.7035 9.25C45.1566 8.67188 44.8832 7.86914 44.8832 6.8418C44.8832 5.80664 45.1371 4.98438 45.6449 4.375C46.1566 3.76562 46.8422 3.46094 47.7016 3.46094C48.5062 3.46094 49.143 3.72656 49.6117 4.25781C50.0805 4.78516 50.3148 5.48242 50.3148 6.34961V6.96484H45.891C45.9105 7.71875 46.1 8.29102 46.4594 8.68164C46.8227 9.07227 47.3324 9.26758 47.9887 9.26758C48.6801 9.26758 49.3637 9.12305 50.0395 8.83398V9.70117C49.6957 9.84961 49.3695 9.95508 49.0609 10.0176C48.7562 10.084 48.3871 10.1172 47.9535 10.1172ZM47.6898 4.27539C47.1742 4.27539 46.7621 4.44336 46.4535 4.7793C46.1488 5.11523 45.9691 5.58008 45.9145 6.17383H49.2719C49.2719 5.56055 49.1352 5.0918 48.8617 4.76758C48.5883 4.43945 48.1977 4.27539 47.6898 4.27539ZM59.8906 10V5.8457C59.8906 5.32227 59.7715 4.93164 59.5332 4.67383C59.2949 4.41602 58.9219 4.28711 58.4141 4.28711C57.7422 4.28711 57.25 4.46875 56.9375 4.83203C56.625 5.19531 56.4688 5.79492 56.4688 6.63086V10H55.4961V3.57812H56.2871L56.4453 4.45703H56.4922C56.6914 4.14062 56.9707 3.89648 57.3301 3.72461C57.6895 3.54883 58.0898 3.46094 58.5312 3.46094C59.3047 3.46094 59.8867 3.64844 60.2773 4.02344C60.668 4.39453 60.8633 4.99023 60.8633 5.81055V10H59.8906ZM67.0164 10L66.823 9.08594H66.7762C66.4559 9.48828 66.1355 9.76172 65.8152 9.90625C65.4988 10.0469 65.1023 10.1172 64.6258 10.1172C63.9891 10.1172 63.4891 9.95312 63.1258 9.625C62.7664 9.29688 62.5867 8.83008 62.5867 8.22461C62.5867 6.92773 63.6238 6.24805 65.698 6.18555L66.7879 6.15039V5.75195C66.7879 5.24805 66.6785 4.87695 66.4598 4.63867C66.2449 4.39648 65.8992 4.27539 65.4227 4.27539C64.8875 4.27539 64.282 4.43945 63.6063 4.76758L63.3074 4.02344C63.6238 3.85156 63.9695 3.7168 64.3445 3.61914C64.7234 3.52148 65.1023 3.47266 65.4813 3.47266C66.2469 3.47266 66.8133 3.64258 67.1805 3.98242C67.5516 4.32227 67.7371 4.86719 67.7371 5.61719V10H67.0164ZM64.8191 9.31445C65.4246 9.31445 65.8992 9.14844 66.243 8.81641C66.5906 8.48438 66.7645 8.01953 66.7645 7.42188V6.8418L65.7918 6.88281C65.0184 6.91016 64.4598 7.03125 64.116 7.24609C63.7762 7.45703 63.6063 7.78711 63.6063 8.23633C63.6063 8.58789 63.7117 8.85547 63.9227 9.03906C64.1375 9.22266 64.4363 9.31445 64.8191 9.31445ZM66.2605 2.7168C66.0926 2.7168 65.9285 2.68164 65.7684 2.61133C65.6082 2.53711 65.45 2.45703 65.2938 2.37109C65.1414 2.28125 64.993 2.20117 64.8484 2.13086C64.7078 2.05664 64.5711 2.01953 64.4383 2.01953C64.243 2.01953 64.0945 2.07812 63.993 2.19531C63.8953 2.3125 63.8191 2.49023 63.7645 2.72852H63.1902C63.241 2.25586 63.3777 1.88672 63.6004 1.62109C63.827 1.35156 64.118 1.2168 64.4734 1.2168C64.6531 1.2168 64.827 1.25391 64.9949 1.32812C65.1629 1.39844 65.323 1.47852 65.4754 1.56836C65.6277 1.6543 65.7742 1.73438 65.9148 1.80859C66.0555 1.87891 66.1883 1.91406 66.3133 1.91406C66.5047 1.91406 66.6473 1.85742 66.741 1.74414C66.8348 1.62695 66.9109 1.44727 66.9695 1.20508H67.5496C67.4988 1.67773 67.3621 2.04883 67.1395 2.31836C66.9207 2.58398 66.6277 2.7168 66.2605 2.7168ZM75.4898 6.7832C75.4898 7.83008 75.2262 8.64844 74.6988 9.23828C74.1715 9.82422 73.443 10.1172 72.5133 10.1172C71.9391 10.1172 71.4293 9.98242 70.984 9.71289C70.5387 9.44336 70.1949 9.05664 69.9527 8.55273C69.7105 8.04883 69.5895 7.45898 69.5895 6.7832C69.5895 5.73633 69.8512 4.92188 70.3746 4.33984C70.898 3.75391 71.6246 3.46094 72.5543 3.46094C73.4527 3.46094 74.1656 3.75977 74.693 4.35742C75.2242 4.95508 75.4898 5.76367 75.4898 6.7832ZM70.5973 6.7832C70.5973 7.60352 70.7613 8.22852 71.0895 8.6582C71.4176 9.08789 71.9 9.30273 72.5367 9.30273C73.1734 9.30273 73.6559 9.08984 73.984 8.66406C74.316 8.23438 74.482 7.60742 74.482 6.7832C74.482 5.9668 74.316 5.34766 73.984 4.92578C73.6559 4.5 73.1695 4.28711 72.525 4.28711C71.8883 4.28711 71.4078 4.49609 71.0836 4.91406C70.7594 5.33203 70.5973 5.95508 70.5973 6.7832ZM83.7063 10.1172C83.2883 10.1172 82.9055 10.041 82.5578 9.88867C82.2141 9.73242 81.925 9.49414 81.6906 9.17383H81.6203C81.6672 9.54883 81.6906 9.9043 81.6906 10.2402V12.8828H80.718V3.57812H81.509L81.6438 4.45703H81.6906C81.9406 4.10547 82.2316 3.85156 82.5637 3.69531C82.8957 3.53906 83.2766 3.46094 83.7063 3.46094C84.5578 3.46094 85.2141 3.75195 85.675 4.33398C86.1398 4.91602 86.3723 5.73242 86.3723 6.7832C86.3723 7.83789 86.1359 8.6582 85.6633 9.24414C85.1945 9.82617 84.5422 10.1172 83.7063 10.1172ZM83.5656 4.28711C82.9094 4.28711 82.4348 4.46875 82.1418 4.83203C81.8488 5.19531 81.6984 5.77344 81.6906 6.56641V6.7832C81.6906 7.68555 81.841 8.33203 82.1418 8.72266C82.4426 9.10938 82.925 9.30273 83.5891 9.30273C84.1438 9.30273 84.5773 9.07812 84.8898 8.62891C85.2063 8.17969 85.3645 7.56055 85.3645 6.77148C85.3645 5.9707 85.2063 5.35742 84.8898 4.93164C84.5773 4.50195 84.1359 4.28711 83.5656 4.28711ZM93.8203 6.7832C93.8203 7.83008 93.5566 8.64844 93.0293 9.23828C92.502 9.82422 91.7734 10.1172 90.8438 10.1172C90.2695 10.1172 89.7598 9.98242 89.3145 9.71289C88.8691 9.44336 88.5254 9.05664 88.2832 8.55273C88.041 8.04883 87.9199 7.45898 87.9199 6.7832C87.9199 5.73633 88.1816 4.92188 88.7051 4.33984C89.2285 3.75391 89.9551 3.46094 90.8848 3.46094C91.7832 3.46094 92.4961 3.75977 93.0234 4.35742C93.5547 4.95508 93.8203 5.76367 93.8203 6.7832ZM88.9277 6.7832C88.9277 7.60352 89.0918 8.22852 89.4199 8.6582C89.748 9.08789 90.2305 9.30273 90.8672 9.30273C91.5039 9.30273 91.9863 9.08984 92.3145 8.66406C92.6465 8.23438 92.8125 7.60742 92.8125 6.7832C92.8125 5.9668 92.6465 5.34766 92.3145 4.92578C91.9863 4.5 91.5 4.28711 90.8555 4.28711C90.2188 4.28711 89.7383 4.49609 89.4141 4.91406C89.0898 5.33203 88.9277 5.95508 88.9277 6.7832ZM99.8738 8.24805C99.8738 8.8457 99.6512 9.30664 99.2059 9.63086C98.7605 9.95508 98.1355 10.1172 97.3309 10.1172C96.4793 10.1172 95.8152 9.98242 95.3387 9.71289V8.81055C95.6473 8.9668 95.9773 9.08984 96.3289 9.17969C96.6844 9.26953 97.0262 9.31445 97.3543 9.31445C97.8621 9.31445 98.2527 9.23438 98.5262 9.07422C98.7996 8.91016 98.9363 8.66211 98.9363 8.33008C98.9363 8.08008 98.827 7.86719 98.6082 7.69141C98.3934 7.51172 97.9715 7.30078 97.3426 7.05859C96.7449 6.83594 96.3191 6.64258 96.0652 6.47852C95.8152 6.31055 95.6277 6.12109 95.5027 5.91016C95.3816 5.69922 95.3211 5.44727 95.3211 5.1543C95.3211 4.63086 95.534 4.21875 95.9598 3.91797C96.3855 3.61328 96.9695 3.46094 97.7117 3.46094C98.4031 3.46094 99.0789 3.60156 99.7391 3.88281L99.3934 4.67383C98.7488 4.4082 98.1648 4.27539 97.6414 4.27539C97.1805 4.27539 96.8328 4.34766 96.5984 4.49219C96.3641 4.63672 96.2469 4.83594 96.2469 5.08984C96.2469 5.26172 96.2898 5.4082 96.3758 5.5293C96.4656 5.65039 96.6082 5.76562 96.8035 5.875C96.9988 5.98438 97.3738 6.14258 97.9285 6.34961C98.6902 6.62695 99.2039 6.90625 99.4695 7.1875C99.7391 7.46875 99.8738 7.82227 99.8738 8.24805ZM105.804 8.24805C105.804 8.8457 105.582 9.30664 105.136 9.63086C104.691 9.95508 104.066 10.1172 103.261 10.1172C102.41 10.1172 101.746 9.98242 101.269 9.71289V8.81055C101.578 8.9668 101.908 9.08984 102.259 9.17969C102.615 9.26953 102.957 9.31445 103.285 9.31445C103.793 9.31445 104.183 9.23438 104.457 9.07422C104.73 8.91016 104.867 8.66211 104.867 8.33008C104.867 8.08008 104.757 7.86719 104.539 7.69141C104.324 7.51172 103.902 7.30078 103.273 7.05859C102.675 6.83594 102.25 6.64258 101.996 6.47852C101.746 6.31055 101.558 6.12109 101.433 5.91016C101.312 5.69922 101.252 5.44727 101.252 5.1543C101.252 4.63086 101.464 4.21875 101.89 3.91797C102.316 3.61328 102.9 3.46094 103.642 3.46094C104.334 3.46094 105.009 3.60156 105.67 3.88281L105.324 4.67383C104.679 4.4082 104.095 4.27539 103.572 4.27539C103.111 4.27539 102.763 4.34766 102.529 4.49219C102.295 4.63672 102.177 4.83594 102.177 5.08984C102.177 5.26172 102.22 5.4082 102.306 5.5293C102.396 5.65039 102.539 5.76562 102.734 5.875C102.929 5.98438 103.304 6.14258 103.859 6.34961C104.621 6.62695 105.134 6.90625 105.4 7.1875C105.67 7.46875 105.804 7.82227 105.804 8.24805ZM108.506 3.57812V7.74414C108.506 8.26758 108.625 8.6582 108.864 8.91602C109.102 9.17383 109.475 9.30273 109.983 9.30273C110.655 9.30273 111.145 9.11914 111.454 8.75195C111.766 8.38477 111.922 7.78516 111.922 6.95312V3.57812H112.895V10H112.092L111.952 9.13867H111.899C111.7 9.45508 111.422 9.69727 111.067 9.86523C110.715 10.0332 110.313 10.1172 109.86 10.1172C109.079 10.1172 108.493 9.93164 108.102 9.56055C107.715 9.18945 107.522 8.5957 107.522 7.7793V3.57812H108.506ZM116.136 10H115.163V3.57812H116.136V10ZM115.081 1.83789C115.081 1.61523 115.136 1.45312 115.245 1.35156C115.355 1.24609 115.491 1.19336 115.655 1.19336C115.812 1.19336 115.946 1.24609 116.06 1.35156C116.173 1.45703 116.23 1.61914 116.23 1.83789C116.23 2.05664 116.173 2.2207 116.06 2.33008C115.946 2.43555 115.812 2.48828 115.655 2.48828C115.491 2.48828 115.355 2.43555 115.245 2.33008C115.136 2.2207 115.081 2.05664 115.081 1.83789ZM127.259 6.7832C127.259 7.83008 126.995 8.64844 126.468 9.23828C125.94 9.82422 125.212 10.1172 124.282 10.1172C123.708 10.1172 123.198 9.98242 122.753 9.71289C122.307 9.44336 121.964 9.05664 121.721 8.55273C121.479 8.04883 121.358 7.45898 121.358 6.7832C121.358 5.73633 121.62 4.92188 122.143 4.33984C122.667 3.75391 123.393 3.46094 124.323 3.46094C125.221 3.46094 125.934 3.75977 126.462 4.35742C126.993 4.95508 127.259 5.76367 127.259 6.7832ZM122.366 6.7832C122.366 7.60352 122.53 8.22852 122.858 8.6582C123.186 9.08789 123.669 9.30273 124.305 9.30273C124.942 9.30273 125.425 9.08984 125.753 8.66406C126.085 8.23438 126.251 7.60742 126.251 6.7832C126.251 5.9668 126.085 5.34766 125.753 4.92578C125.425 4.5 124.938 4.28711 124.294 4.28711C123.657 4.28711 123.177 4.49609 122.852 4.91406C122.528 5.33203 122.366 5.95508 122.366 6.7832ZM140.672 10V5.82227C140.672 5.31055 140.563 4.92773 140.344 4.67383C140.125 4.41602 139.786 4.28711 139.325 4.28711C138.719 4.28711 138.272 4.46094 137.983 4.80859C137.694 5.15625 137.549 5.69141 137.549 6.41406V10H136.577V5.82227C136.577 5.31055 136.467 4.92773 136.248 4.67383C136.03 4.41602 135.688 4.28711 135.223 4.28711C134.614 4.28711 134.166 4.4707 133.881 4.83789C133.6 5.20117 133.459 5.79883 133.459 6.63086V10H132.487V3.57812H133.278L133.436 4.45703H133.483C133.666 4.14453 133.924 3.90039 134.256 3.72461C134.592 3.54883 134.967 3.46094 135.381 3.46094C136.385 3.46094 137.041 3.82422 137.35 4.55078H137.397C137.588 4.21484 137.866 3.94922 138.229 3.75391C138.592 3.55859 139.006 3.46094 139.471 3.46094C140.198 3.46094 140.741 3.64844 141.1 4.02344C141.463 4.39453 141.645 4.99023 141.645 5.81055V10H140.672ZM149.398 6.7832C149.398 7.83008 149.134 8.64844 148.607 9.23828C148.079 9.82422 147.351 10.1172 146.421 10.1172C145.847 10.1172 145.337 9.98242 144.892 9.71289C144.446 9.44336 144.103 9.05664 143.861 8.55273C143.618 8.04883 143.497 7.45898 143.497 6.7832C143.497 5.73633 143.759 4.92188 144.282 4.33984C144.806 3.75391 145.532 3.46094 146.462 3.46094C147.361 3.46094 148.073 3.75977 148.601 4.35742C149.132 4.95508 149.398 5.76367 149.398 6.7832ZM144.505 6.7832C144.505 7.60352 144.669 8.22852 144.997 8.6582C145.325 9.08789 145.808 9.30273 146.445 9.30273C147.081 9.30273 147.564 9.08984 147.892 8.66406C148.224 8.23438 148.39 7.60742 148.39 6.7832C148.39 5.9668 148.224 5.34766 147.892 4.92578C147.564 4.5 147.077 4.28711 146.433 4.28711C145.796 4.28711 145.316 4.49609 144.991 4.91406C144.667 5.33203 144.505 5.95508 144.505 6.7832ZM155.68 9.13867H155.627C155.178 9.79102 154.506 10.1172 153.611 10.1172C152.771 10.1172 152.117 9.83008 151.648 9.25586C151.184 8.68164 150.951 7.86523 150.951 6.80664C150.951 5.74805 151.186 4.92578 151.654 4.33984C152.123 3.75391 152.775 3.46094 153.611 3.46094C154.482 3.46094 155.15 3.77734 155.615 4.41016H155.691L155.65 3.94727L155.627 3.49609V0.882812H156.6V10H155.809L155.68 9.13867ZM153.734 9.30273C154.398 9.30273 154.879 9.12305 155.176 8.76367C155.477 8.40039 155.627 7.81641 155.627 7.01172V6.80664C155.627 5.89648 155.475 5.24805 155.17 4.86133C154.869 4.4707 154.387 4.27539 153.723 4.27539C153.152 4.27539 152.715 4.49805 152.41 4.94336C152.109 5.38477 151.959 6.00977 151.959 6.81836C151.959 7.63867 152.109 8.25781 152.41 8.67578C152.711 9.09375 153.152 9.30273 153.734 9.30273ZM164.411 6.7832C164.411 7.83008 164.147 8.64844 163.62 9.23828C163.093 9.82422 162.364 10.1172 161.434 10.1172C160.86 10.1172 160.35 9.98242 159.905 9.71289C159.46 9.44336 159.116 9.05664 158.874 8.55273C158.632 8.04883 158.511 7.45898 158.511 6.7832C158.511 5.73633 158.772 4.92188 159.296 4.33984C159.819 3.75391 160.546 3.46094 161.475 3.46094C162.374 3.46094 163.087 3.75977 163.614 4.35742C164.145 4.95508 164.411 5.76367 164.411 6.7832ZM159.518 6.7832C159.518 7.60352 159.682 8.22852 160.011 8.6582C160.339 9.08789 160.821 9.30273 161.458 9.30273C162.095 9.30273 162.577 9.08984 162.905 8.66406C163.237 8.23438 163.403 7.60742 163.403 6.7832C163.403 5.9668 163.237 5.34766 162.905 4.92578C162.577 4.5 162.091 4.28711 161.446 4.28711C160.809 4.28711 160.329 4.49609 160.005 4.91406C159.68 5.33203 159.518 5.95508 159.518 6.7832ZM174.01 9.13867H173.957C173.508 9.79102 172.836 10.1172 171.942 10.1172C171.102 10.1172 170.448 9.83008 169.979 9.25586C169.514 8.68164 169.282 7.86523 169.282 6.80664C169.282 5.74805 169.516 4.92578 169.985 4.33984C170.454 3.75391 171.106 3.46094 171.942 3.46094C172.813 3.46094 173.481 3.77734 173.946 4.41016H174.022L173.981 3.94727L173.957 3.49609V0.882812H174.93V10H174.139L174.01 9.13867ZM172.065 9.30273C172.729 9.30273 173.209 9.12305 173.506 8.76367C173.807 8.40039 173.957 7.81641 173.957 7.01172V6.80664C173.957 5.89648 173.805 5.24805 173.5 4.86133C173.2 4.4707 172.717 4.27539 172.053 4.27539C171.483 4.27539 171.045 4.49805 170.741 4.94336C170.44 5.38477 170.289 6.00977 170.289 6.81836C170.289 7.63867 170.44 8.25781 170.741 8.67578C171.041 9.09375 171.483 9.30273 172.065 9.30273ZM179.911 10.1172C178.962 10.1172 178.212 9.82812 177.661 9.25C177.114 8.67188 176.841 7.86914 176.841 6.8418C176.841 5.80664 177.095 4.98438 177.603 4.375C178.114 3.76562 178.8 3.46094 179.659 3.46094C180.464 3.46094 181.101 3.72656 181.57 4.25781C182.038 4.78516 182.273 5.48242 182.273 6.34961V6.96484H177.849C177.868 7.71875 178.058 8.29102 178.417 8.68164C178.78 9.07227 179.29 9.26758 179.946 9.26758C180.638 9.26758 181.321 9.12305 181.997 8.83398V9.70117C181.654 9.84961 181.327 9.95508 181.019 10.0176C180.714 10.084 180.345 10.1172 179.911 10.1172ZM179.648 4.27539C179.132 4.27539 178.72 4.44336 178.411 4.7793C178.107 5.11523 177.927 5.58008 177.872 6.17383H181.23C181.23 5.56055 181.093 5.0918 180.82 4.76758C180.546 4.43945 180.155 4.27539 179.648 4.27539ZM190.167 10.1172C189.218 10.1172 188.468 9.82812 187.917 9.25C187.37 8.67188 187.096 7.86914 187.096 6.8418C187.096 5.80664 187.35 4.98438 187.858 4.375C188.37 3.76562 189.055 3.46094 189.915 3.46094C190.72 3.46094 191.356 3.72656 191.825 4.25781C192.294 4.78516 192.528 5.48242 192.528 6.34961V6.96484H188.104C188.124 7.71875 188.313 8.29102 188.673 8.68164C189.036 9.07227 189.546 9.26758 190.202 9.26758C190.893 9.26758 191.577 9.12305 192.253 8.83398V9.70117C191.909 9.84961 191.583 9.95508 191.274 10.0176C190.97 10.084 190.6 10.1172 190.167 10.1172ZM189.903 4.27539C189.387 4.27539 188.975 4.44336 188.667 4.7793C188.362 5.11523 188.182 5.58008 188.128 6.17383H191.485C191.485 5.56055 191.348 5.0918 191.075 4.76758C190.802 4.43945 190.411 4.27539 189.903 4.27539ZM198.787 10V5.8457C198.787 5.32227 198.668 4.93164 198.429 4.67383C198.191 4.41602 197.818 4.28711 197.31 4.28711C196.638 4.28711 196.146 4.46875 195.834 4.83203C195.521 5.19531 195.365 5.79492 195.365 6.63086V10H194.392V3.57812H195.183L195.341 4.45703H195.388C195.587 4.14062 195.867 3.89648 196.226 3.72461C196.586 3.54883 196.986 3.46094 197.427 3.46094C198.201 3.46094 198.783 3.64844 199.173 4.02344C199.564 4.39453 199.759 4.99023 199.759 5.81055V10H198.787ZM203.37 10L200.932 3.57812H201.975L203.358 7.38672C203.67 8.27734 203.854 8.85547 203.909 9.12109H203.955C203.998 8.91406 204.133 8.48633 204.36 7.83789C204.59 7.18555 205.104 5.76562 205.901 3.57812H206.944L204.506 10H203.37ZM209.148 10H208.175V3.57812H209.148V10ZM208.093 1.83789C208.093 1.61523 208.148 1.45312 208.257 1.35156C208.366 1.24609 208.503 1.19336 208.667 1.19336C208.823 1.19336 208.958 1.24609 209.071 1.35156C209.185 1.45703 209.241 1.61914 209.241 1.83789C209.241 2.05664 209.185 2.2207 209.071 2.33008C208.958 2.43555 208.823 2.48828 208.667 2.48828C208.503 2.48828 208.366 2.43555 208.257 2.33008C208.148 2.2207 208.093 2.05664 208.093 1.83789ZM216.953 6.7832C216.953 7.83008 216.689 8.64844 216.162 9.23828C215.635 9.82422 214.906 10.1172 213.977 10.1172C213.402 10.1172 212.893 9.98242 212.447 9.71289C212.002 9.44336 211.658 9.05664 211.416 8.55273C211.174 8.04883 211.053 7.45898 211.053 6.7832C211.053 5.73633 211.314 4.92188 211.838 4.33984C212.361 3.75391 213.088 3.46094 214.018 3.46094C214.916 3.46094 215.629 3.75977 216.156 4.35742C216.688 4.95508 216.953 5.76367 216.953 6.7832ZM212.061 6.7832C212.061 7.60352 212.225 8.22852 212.553 8.6582C212.881 9.08789 213.363 9.30273 214 9.30273C214.637 9.30273 215.119 9.08984 215.447 8.66406C215.779 8.23438 215.945 7.60742 215.945 6.7832C215.945 5.9668 215.779 5.34766 215.447 4.92578C215.119 4.5 214.633 4.28711 213.988 4.28711C213.352 4.28711 212.871 4.49609 212.547 4.91406C212.223 5.33203 212.061 5.95508 212.061 6.7832ZM226.552 9.13867H226.5C226.05 9.79102 225.379 10.1172 224.484 10.1172C223.644 10.1172 222.99 9.83008 222.521 9.25586C222.056 8.68164 221.824 7.86523 221.824 6.80664C221.824 5.74805 222.058 4.92578 222.527 4.33984C222.996 3.75391 223.648 3.46094 224.484 3.46094C225.355 3.46094 226.023 3.77734 226.488 4.41016H226.564L226.523 3.94727L226.5 3.49609V0.882812H227.472V10H226.681L226.552 9.13867ZM224.607 9.30273C225.271 9.30273 225.752 9.12305 226.048 8.76367C226.349 8.40039 226.5 7.81641 226.5 7.01172V6.80664C226.5 5.89648 226.347 5.24805 226.043 4.86133C225.742 4.4707 225.259 4.27539 224.595 4.27539C224.025 4.27539 223.587 4.49805 223.283 4.94336C222.982 5.38477 222.832 6.00977 222.832 6.81836C222.832 7.63867 222.982 8.25781 223.283 8.67578C223.584 9.09375 224.025 9.30273 224.607 9.30273ZM232.454 10.1172C231.504 10.1172 230.754 9.82812 230.204 9.25C229.657 8.67188 229.383 7.86914 229.383 6.8418C229.383 5.80664 229.637 4.98438 230.145 4.375C230.657 3.76562 231.342 3.46094 232.202 3.46094C233.006 3.46094 233.643 3.72656 234.112 4.25781C234.58 4.78516 234.815 5.48242 234.815 6.34961V6.96484H230.391C230.411 7.71875 230.6 8.29102 230.959 8.68164C231.323 9.07227 231.832 9.26758 232.489 9.26758C233.18 9.26758 233.864 9.12305 234.539 8.83398V9.70117C234.196 9.84961 233.87 9.95508 233.561 10.0176C233.256 10.084 232.887 10.1172 232.454 10.1172ZM232.19 4.27539C231.674 4.27539 231.262 4.44336 230.954 4.7793C230.649 5.11523 230.469 5.58008 230.414 6.17383H233.772C233.772 5.56055 233.635 5.0918 233.362 4.76758C233.088 4.43945 232.698 4.27539 232.19 4.27539ZM242.984 10.1172C242.566 10.1172 242.184 10.041 241.836 9.88867C241.492 9.73242 241.203 9.49414 240.969 9.17383H240.898C240.945 9.54883 240.969 9.9043 240.969 10.2402V12.8828H239.996V3.57812H240.787L240.922 4.45703H240.969C241.219 4.10547 241.51 3.85156 241.842 3.69531C242.174 3.53906 242.555 3.46094 242.984 3.46094C243.836 3.46094 244.492 3.75195 244.953 4.33398C245.418 4.91602 245.65 5.73242 245.65 6.7832C245.65 7.83789 245.414 8.6582 244.941 9.24414C244.473 9.82617 243.82 10.1172 242.984 10.1172ZM242.844 4.28711C242.188 4.28711 241.713 4.46875 241.42 4.83203C241.127 5.19531 240.977 5.77344 240.969 6.56641V6.7832C240.969 7.68555 241.119 8.33203 241.42 8.72266C241.721 9.10938 242.203 9.30273 242.867 9.30273C243.422 9.30273 243.855 9.07812 244.168 8.62891C244.484 8.17969 244.643 7.56055 244.643 6.77148C244.643 5.9707 244.484 5.35742 244.168 4.93164C243.855 4.50195 243.414 4.28711 242.844 4.28711ZM250.485 3.46094C250.77 3.46094 251.026 3.48438 251.253 3.53125L251.118 4.43359C250.852 4.375 250.618 4.3457 250.415 4.3457C249.895 4.3457 249.45 4.55664 249.079 4.97852C248.712 5.40039 248.528 5.92578 248.528 6.55469V10H247.555V3.57812H248.358L248.47 4.76758H248.516C248.755 4.34961 249.042 4.02734 249.378 3.80078C249.714 3.57422 250.083 3.46094 250.485 3.46094ZM258.197 6.7832C258.197 7.83008 257.933 8.64844 257.406 9.23828C256.879 9.82422 256.15 10.1172 255.22 10.1172C254.646 10.1172 254.136 9.98242 253.691 9.71289C253.246 9.44336 252.902 9.05664 252.66 8.55273C252.418 8.04883 252.296 7.45898 252.296 6.7832C252.296 5.73633 252.558 4.92188 253.082 4.33984C253.605 3.75391 254.332 3.46094 255.261 3.46094C256.16 3.46094 256.873 3.75977 257.4 4.35742C257.931 4.95508 258.197 5.76367 258.197 6.7832ZM253.304 6.7832C253.304 7.60352 253.468 8.22852 253.796 8.6582C254.125 9.08789 254.607 9.30273 255.244 9.30273C255.88 9.30273 256.363 9.08984 256.691 8.66406C257.023 8.23438 257.189 7.60742 257.189 6.7832C257.189 5.9668 257.023 5.34766 256.691 4.92578C256.363 4.5 255.877 4.28711 255.232 4.28711C254.595 4.28711 254.115 4.49609 253.791 4.91406C253.466 5.33203 253.304 5.95508 253.304 6.7832ZM262.182 9.31445C262.354 9.31445 262.52 9.30273 262.68 9.2793C262.84 9.25195 262.967 9.22461 263.061 9.19727V9.94141C262.955 9.99219 262.799 10.0332 262.592 10.0645C262.389 10.0996 262.205 10.1172 262.041 10.1172C260.799 10.1172 260.178 9.46289 260.178 8.1543V4.33398H259.258V3.86523L260.178 3.46094L260.588 2.08984H261.151V3.57812H263.014V4.33398H261.151V8.11328C261.151 8.5 261.243 8.79688 261.426 9.00391C261.61 9.21094 261.862 9.31445 262.182 9.31445ZM270.093 6.7832C270.093 7.83008 269.829 8.64844 269.302 9.23828C268.775 9.82422 268.046 10.1172 267.116 10.1172C266.542 10.1172 266.032 9.98242 265.587 9.71289C265.142 9.44336 264.798 9.05664 264.556 8.55273C264.314 8.04883 264.193 7.45898 264.193 6.7832C264.193 5.73633 264.454 4.92188 264.978 4.33984C265.501 3.75391 266.228 3.46094 267.157 3.46094C268.056 3.46094 268.769 3.75977 269.296 4.35742C269.827 4.95508 270.093 5.76367 270.093 6.7832ZM265.2 6.7832C265.2 7.60352 265.364 8.22852 265.693 8.6582C266.021 9.08789 266.503 9.30273 267.14 9.30273C267.777 9.30273 268.259 9.08984 268.587 8.66406C268.919 8.23438 269.085 7.60742 269.085 6.7832C269.085 5.9668 268.919 5.34766 268.587 4.92578C268.259 4.5 267.773 4.28711 267.128 4.28711C266.491 4.28711 266.011 4.49609 265.687 4.91406C265.362 5.33203 265.2 5.95508 265.2 6.7832ZM274.57 10.1172C273.641 10.1172 272.92 9.83203 272.408 9.26172C271.9 8.6875 271.646 7.87695 271.646 6.83008C271.646 5.75586 271.904 4.92578 272.42 4.33984C272.939 3.75391 273.678 3.46094 274.635 3.46094C274.943 3.46094 275.252 3.49414 275.561 3.56055C275.869 3.62695 276.111 3.70508 276.287 3.79492L275.988 4.62109C275.773 4.53516 275.539 4.46484 275.285 4.41016C275.031 4.35156 274.807 4.32227 274.611 4.32227C273.307 4.32227 272.654 5.1543 272.654 6.81836C272.654 7.60742 272.812 8.21289 273.129 8.63477C273.449 9.05664 273.922 9.26758 274.547 9.26758C275.082 9.26758 275.631 9.15234 276.193 8.92188V9.7832C275.764 10.0059 275.223 10.1172 274.57 10.1172ZM283.466 6.7832C283.466 7.83008 283.202 8.64844 282.675 9.23828C282.147 9.82422 281.419 10.1172 280.489 10.1172C279.915 10.1172 279.405 9.98242 278.96 9.71289C278.514 9.44336 278.171 9.05664 277.929 8.55273C277.686 8.04883 277.565 7.45898 277.565 6.7832C277.565 5.73633 277.827 4.92188 278.35 4.33984C278.874 3.75391 279.6 3.46094 280.53 3.46094C281.429 3.46094 282.141 3.75977 282.669 4.35742C283.2 4.95508 283.466 5.76367 283.466 6.7832ZM278.573 6.7832C278.573 7.60352 278.737 8.22852 279.065 8.6582C279.393 9.08789 279.876 9.30273 280.513 9.30273C281.149 9.30273 281.632 9.08984 281.96 8.66406C282.292 8.23438 282.458 7.60742 282.458 6.7832C282.458 5.9668 282.292 5.34766 281.96 4.92578C281.632 4.5 281.145 4.28711 280.501 4.28711C279.864 4.28711 279.384 4.49609 279.059 4.91406C278.735 5.33203 278.573 5.95508 278.573 6.7832ZM286.349 10H285.377V0.882812H286.349V10ZM294.155 6.7832C294.155 7.83008 293.891 8.64844 293.364 9.23828C292.836 9.82422 292.108 10.1172 291.178 10.1172C290.604 10.1172 290.094 9.98242 289.649 9.71289C289.204 9.44336 288.86 9.05664 288.618 8.55273C288.375 8.04883 288.254 7.45898 288.254 6.7832C288.254 5.73633 288.516 4.92188 289.039 4.33984C289.563 3.75391 290.289 3.46094 291.219 3.46094C292.118 3.46094 292.83 3.75977 293.358 4.35742C293.889 4.95508 294.155 5.76367 294.155 6.7832ZM289.262 6.7832C289.262 7.60352 289.426 8.22852 289.754 8.6582C290.082 9.08789 290.565 9.30273 291.202 9.30273C291.838 9.30273 292.321 9.08984 292.649 8.66406C292.981 8.23438 293.147 7.60742 293.147 6.7832C293.147 5.9668 292.981 5.34766 292.649 4.92578C292.321 4.5 291.834 4.28711 291.19 4.28711C290.553 4.28711 290.073 4.49609 289.748 4.91406C289.424 5.33203 289.262 5.95508 289.262 6.7832Z" fill="#ACACAC"/>
</svg>
