<svg width="24" height="10" viewBox="0 0 24 10" fill="none" xmlns="http://www.w3.org/2000/svg">
<path d="M6.01172 6.7207C6.01172 7.47461 5.73828 8.0625 5.19141 8.48438C4.64453 8.90625 3.90234 9.11719 2.96484 9.11719C1.94922 9.11719 1.16797 8.98633 0.621094 8.72461V7.76367C0.972656 7.91211 1.35547 8.0293 1.76953 8.11523C2.18359 8.20117 2.59375 8.24414 3 8.24414C3.66406 8.24414 4.16406 8.11914 4.5 7.86914C4.83594 7.61523 5.00391 7.26367 5.00391 6.81445C5.00391 6.51758 4.94336 6.27539 4.82227 6.08789C4.70508 5.89648 4.50586 5.7207 4.22461 5.56055C3.94727 5.40039 3.52344 5.21875 2.95312 5.01562C2.15625 4.73047 1.58594 4.39258 1.24219 4.00195C0.902344 3.61133 0.732422 3.10156 0.732422 2.47266C0.732422 1.8125 0.980469 1.28711 1.47656 0.896484C1.97266 0.505859 2.62891 0.310547 3.44531 0.310547C4.29688 0.310547 5.08008 0.466797 5.79492 0.779297L5.48438 1.64648C4.77734 1.34961 4.08984 1.20117 3.42188 1.20117C2.89453 1.20117 2.48242 1.31445 2.18555 1.54102C1.88867 1.76758 1.74023 2.08203 1.74023 2.48438C1.74023 2.78125 1.79492 3.02539 1.9043 3.2168C2.01367 3.4043 2.19727 3.57812 2.45508 3.73828C2.7168 3.89453 3.11523 4.06836 3.65039 4.25977C4.54883 4.58008 5.16602 4.92383 5.50195 5.29102C5.8418 5.6582 6.01172 6.13477 6.01172 6.7207ZM11.7547 9L8.84844 1.40625H8.80156C8.85625 2.00781 8.88359 2.72266 8.88359 3.55078V9H7.96367V0.433594H9.46367L12.1766 7.5H12.2234L14.9598 0.433594H16.448V9H15.452V3.48047C15.452 2.84766 15.4793 2.16016 15.534 1.41797H15.4871L12.5574 9H11.7547ZM23.8375 6.7207C23.8375 7.47461 23.5641 8.0625 23.0172 8.48438C22.4703 8.90625 21.7281 9.11719 20.7906 9.11719C19.775 9.11719 18.9937 8.98633 18.4469 8.72461V7.76367C18.7984 7.91211 19.1812 8.0293 19.5953 8.11523C20.0094 8.20117 20.4195 8.24414 20.8258 8.24414C21.4898 8.24414 21.9898 8.11914 22.3258 7.86914C22.6617 7.61523 22.8297 7.26367 22.8297 6.81445C22.8297 6.51758 22.7691 6.27539 22.648 6.08789C22.5309 5.89648 22.3316 5.7207 22.0504 5.56055C21.773 5.40039 21.3492 5.21875 20.7789 5.01562C19.982 4.73047 19.4117 4.39258 19.068 4.00195C18.7281 3.61133 18.5582 3.10156 18.5582 2.47266C18.5582 1.8125 18.8062 1.28711 19.3023 0.896484C19.7984 0.505859 20.4547 0.310547 21.2711 0.310547C22.1227 0.310547 22.9059 0.466797 23.6207 0.779297L23.3102 1.64648C22.6031 1.34961 21.9156 1.20117 21.2477 1.20117C20.7203 1.20117 20.3082 1.31445 20.0113 1.54102C19.7145 1.76758 19.566 2.08203 19.566 2.48438C19.566 2.78125 19.6207 3.02539 19.7301 3.2168C19.8395 3.4043 20.023 3.57812 20.2809 3.73828C20.5426 3.89453 20.941 4.06836 21.4762 4.25977C22.3746 4.58008 22.9918 4.92383 23.3277 5.29102C23.6676 5.6582 23.8375 6.13477 23.8375 6.7207Z" fill="#ACACAC"/>
</svg>
