<svg width="292" height="15" viewBox="0 0 292 15" fill="none" xmlns="http://www.w3.org/2000/svg">
<path d="M2.41269 11H0.792572V1.00586H6.43222V2.38672H2.41269V5.51074H6.17929V6.89844H2.41269V11ZM14.9789 7.20605C14.9789 8.44108 14.6622 9.40495 14.0287 10.0977C13.3952 10.7904 12.5134 11.1367 11.3832 11.1367C10.6768 11.1367 10.0525 10.9772 9.51015 10.6582C8.96783 10.3392 8.55084 9.88118 8.25917 9.28418C7.96751 8.68717 7.82167 7.99447 7.82167 7.20605C7.82167 5.98014 8.13613 5.02311 8.76503 4.33496C9.39394 3.64681 10.2803 3.30273 11.4242 3.30273C12.518 3.30273 13.3838 3.65592 14.0219 4.3623C14.6599 5.06413 14.9789 6.01204 14.9789 7.20605ZM9.47597 7.20605C9.47597 8.9515 10.1208 9.82422 11.4105 9.82422C12.6866 9.82422 13.3246 8.9515 13.3246 7.20605C13.3246 5.47884 12.682 4.61523 11.3969 4.61523C10.7224 4.61523 10.2325 4.83854 9.92714 5.28516C9.62636 5.73177 9.47597 6.37207 9.47597 7.20605ZM18.6379 11H17.0314V3.43945H18.6379V11ZM16.9357 1.43652C16.9357 1.14941 17.0132 0.928385 17.1682 0.773438C17.3277 0.61849 17.5532 0.541016 17.8449 0.541016C18.1275 0.541016 18.3462 0.61849 18.5012 0.773438C18.6607 0.928385 18.7404 1.14941 18.7404 1.43652C18.7404 1.70996 18.6607 1.92643 18.5012 2.08594C18.3462 2.24089 18.1275 2.31836 17.8449 2.31836C17.5532 2.31836 17.3277 2.24089 17.1682 2.08594C17.0132 1.92643 16.9357 1.70996 16.9357 1.43652ZM31.3631 3.43945V4.32129L30.0711 4.56055C30.1896 4.72005 30.2876 4.91602 30.365 5.14844C30.4425 5.38086 30.4812 5.62695 30.4812 5.88672C30.4812 6.66602 30.2124 7.27897 29.6746 7.72559C29.1368 8.1722 28.3963 8.39551 27.4529 8.39551C27.2114 8.39551 26.9926 8.37728 26.7967 8.34082C26.4503 8.55501 26.2771 8.80566 26.2771 9.09277C26.2771 9.26595 26.3569 9.39583 26.5164 9.48242C26.6805 9.56901 26.979 9.6123 27.4119 9.6123H28.7312C29.5652 9.6123 30.1987 9.79004 30.6316 10.1455C31.0646 10.501 31.281 11.0137 31.281 11.6836C31.281 12.5404 30.9279 13.2012 30.2215 13.666C29.5151 14.1309 28.4943 14.3633 27.159 14.3633C26.129 14.3633 25.3429 14.181 24.8006 13.8164C24.2583 13.4518 23.9871 12.9323 23.9871 12.2578C23.9871 11.793 24.1329 11.401 24.4246 11.082C24.7208 10.7676 25.1333 10.5488 25.6619 10.4258C25.4477 10.3346 25.27 10.1888 25.1287 9.98828C24.992 9.7832 24.9236 9.56901 24.9236 9.3457C24.9236 9.06315 25.0034 8.82389 25.1629 8.62793C25.3224 8.43197 25.5594 8.23828 25.8738 8.04688C25.4819 7.87826 25.1629 7.60482 24.9168 7.22656C24.6753 6.84375 24.5545 6.39714 24.5545 5.88672C24.5545 5.06641 24.812 4.43066 25.3269 3.97949C25.8465 3.52832 26.5848 3.30273 27.5418 3.30273C27.756 3.30273 27.9793 3.31868 28.2117 3.35059C28.4487 3.37793 28.6264 3.40755 28.7449 3.43945H31.3631ZM25.4226 12.1758C25.4226 12.5221 25.5776 12.7887 25.8875 12.9756C26.2019 13.1624 26.6417 13.2559 27.2068 13.2559C28.0818 13.2559 28.7335 13.1305 29.1619 12.8799C29.5903 12.6292 29.8045 12.2965 29.8045 11.8818C29.8045 11.5537 29.686 11.319 29.449 11.1777C29.2166 11.041 28.7814 10.9727 28.1434 10.9727H26.9266C26.4663 10.9727 26.0994 11.0798 25.826 11.2939C25.5571 11.5127 25.4226 11.8066 25.4226 12.1758ZM26.1131 5.88672C26.1131 6.36068 26.2338 6.72526 26.4754 6.98047C26.7215 7.23568 27.0724 7.36328 27.5281 7.36328C28.4578 7.36328 28.9226 6.86654 28.9226 5.87305C28.9226 5.38086 28.8064 5.0026 28.574 4.73828C28.3462 4.4694 27.9975 4.33496 27.5281 4.33496C27.0633 4.33496 26.7101 4.46712 26.4685 4.73145C26.2316 4.99577 26.1131 5.38086 26.1131 5.88672ZM36.273 11.1367C35.0973 11.1367 34.1767 10.7949 33.5113 10.1113C32.8505 9.42318 32.5201 8.47754 32.5201 7.27441C32.5201 6.03939 32.8277 5.06868 33.443 4.3623C34.0582 3.65592 34.9036 3.30273 35.9791 3.30273C36.9771 3.30273 37.7656 3.60579 38.3443 4.21191C38.9231 4.81803 39.2125 5.65202 39.2125 6.71387V7.58203H34.1744C34.1972 8.31576 34.3954 8.88086 34.7691 9.27734C35.1428 9.66927 35.6692 9.86523 36.3482 9.86523C36.7949 9.86523 37.2096 9.82422 37.5924 9.74219C37.9797 9.6556 38.3945 9.51432 38.8365 9.31836V10.624C38.4446 10.8109 38.0481 10.943 37.6471 11.0205C37.246 11.098 36.788 11.1367 36.273 11.1367ZM35.9791 4.51953C35.4687 4.51953 35.0585 4.68132 34.7486 5.00488C34.4433 5.32845 34.261 5.80013 34.2018 6.41992H37.6334C37.6243 5.79557 37.4739 5.32389 37.1822 5.00488C36.8906 4.68132 36.4895 4.51953 35.9791 4.51953ZM45.0727 3.30273C45.3962 3.30273 45.6628 3.32552 45.8725 3.37109L45.7152 4.86816C45.4874 4.81348 45.2504 4.78613 45.0043 4.78613C44.3617 4.78613 43.8399 4.99577 43.4389 5.41504C43.0424 5.83431 42.8441 6.37891 42.8441 7.04883V11H41.2377V3.43945H42.4955L42.7074 4.77246H42.7894C43.0401 4.32129 43.3659 3.96354 43.767 3.69922C44.1726 3.4349 44.6078 3.30273 45.0727 3.30273ZM52.2111 11L51.8898 9.94727H51.8352C51.4706 10.4076 51.1037 10.722 50.7346 10.8906C50.3654 11.0547 49.8915 11.1367 49.3127 11.1367C48.5699 11.1367 47.9888 10.9362 47.5695 10.5352C47.1548 10.1341 46.9475 9.56673 46.9475 8.83301C46.9475 8.05371 47.2368 7.46582 47.8156 7.06934C48.3944 6.67285 49.2762 6.45638 50.4611 6.41992L51.7668 6.37891V5.97559C51.7668 5.49251 51.6529 5.13249 51.425 4.89551C51.2017 4.65397 50.8531 4.5332 50.3791 4.5332C49.9917 4.5332 49.6203 4.59017 49.2648 4.7041C48.9094 4.81803 48.5676 4.95247 48.2394 5.10742L47.7199 3.95898C48.1301 3.74479 48.579 3.58301 49.0666 3.47363C49.5542 3.3597 50.0145 3.30273 50.4475 3.30273C51.409 3.30273 52.1337 3.51237 52.6213 3.93164C53.1135 4.35091 53.3596 5.00944 53.3596 5.90723V11H52.2111ZM49.8186 9.90625C50.4019 9.90625 50.869 9.74447 51.2199 9.4209C51.5754 9.09277 51.7531 8.63477 51.7531 8.04688V7.39062L50.7824 7.43164C50.0259 7.45898 49.4745 7.58659 49.1281 7.81445C48.7863 8.03776 48.6154 8.38184 48.6154 8.84668C48.6154 9.18392 48.7157 9.44596 48.9162 9.63281C49.1167 9.8151 49.4175 9.90625 49.8186 9.90625ZM58.3516 11.1367C57.4082 11.1367 56.6722 10.7949 56.1435 10.1113C55.6149 9.42773 55.3506 8.46842 55.3506 7.2334C55.3506 5.99382 55.6172 5.02995 56.1504 4.3418C56.6881 3.64909 57.431 3.30273 58.3789 3.30273C59.3724 3.30273 60.1289 3.6696 60.6484 4.40332H60.7305C60.653 3.861 60.6143 3.43262 60.6143 3.11816V0.363281H62.2275V11H60.9697L60.6894 10.0088H60.6143C60.0993 10.7607 59.345 11.1367 58.3516 11.1367ZM58.7822 9.83789C59.443 9.83789 59.9238 9.65332 60.2246 9.28418C60.5254 8.91048 60.6803 8.30664 60.6894 7.47266V7.24707C60.6894 6.2946 60.5345 5.61784 60.2246 5.2168C59.9147 4.81576 59.4294 4.61523 58.7685 4.61523C58.2034 4.61523 57.7682 4.84538 57.4629 5.30566C57.1575 5.76139 57.0049 6.41309 57.0049 7.26074C57.0049 8.09928 57.153 8.73958 57.4492 9.18164C57.7454 9.61914 58.1898 9.83789 58.7822 9.83789ZM71.4305 7.20605C71.4305 8.44108 71.1137 9.40495 70.4803 10.0977C69.8468 10.7904 68.965 11.1367 67.8348 11.1367C67.1284 11.1367 66.504 10.9772 65.9617 10.6582C65.4194 10.3392 65.0024 9.88118 64.7107 9.28418C64.4191 8.68717 64.2732 7.99447 64.2732 7.20605C64.2732 5.98014 64.5877 5.02311 65.2166 4.33496C65.8455 3.64681 66.7319 3.30273 67.8758 3.30273C68.9695 3.30273 69.8354 3.65592 70.4734 4.3623C71.1115 5.06413 71.4305 6.01204 71.4305 7.20605ZM65.9275 7.20605C65.9275 8.9515 66.5724 9.82422 67.8621 9.82422C69.1381 9.82422 69.7762 8.9515 69.7762 7.20605C69.7762 5.47884 69.1336 4.61523 67.8484 4.61523C67.174 4.61523 66.684 4.83854 66.3787 5.28516C66.0779 5.73177 65.9275 6.37207 65.9275 7.20605ZM82.6517 11L82.4262 10.0088H82.3441C82.1208 10.3597 81.8018 10.6354 81.3871 10.8359C80.9769 11.0365 80.5075 11.1367 79.9789 11.1367C79.0629 11.1367 78.3793 10.9089 77.9281 10.4531C77.4769 9.9974 77.2514 9.30697 77.2514 8.38184V3.43945H78.8715V8.10156C78.8715 8.68034 78.99 9.11556 79.2269 9.40723C79.4639 9.69434 79.8353 9.83789 80.3412 9.83789C81.0157 9.83789 81.5101 9.63737 81.8246 9.23633C82.1436 8.83073 82.3031 8.15397 82.3031 7.20605V3.43945H83.9164V11H82.6517ZM92.7775 11H91.1643V6.33789C91.1643 5.75911 91.0549 5.32845 90.8361 5.0459C90.6174 4.75879 90.2756 4.61523 89.8107 4.61523C89.1909 4.61523 88.7352 4.81803 88.4436 5.22363C88.1564 5.62467 88.0129 6.2946 88.0129 7.2334V11H86.4064V3.43945H87.6643L87.8898 4.43066H87.9719C88.1815 4.07064 88.4846 3.79264 88.8811 3.59668C89.2821 3.40072 89.7219 3.30273 90.2004 3.30273C91.3625 3.30273 92.1327 3.69922 92.5109 4.49219H92.6203C92.8436 4.11849 93.1581 3.82682 93.5637 3.61719C93.9693 3.40755 94.4341 3.30273 94.9582 3.30273C95.8605 3.30273 96.5168 3.5306 96.9269 3.98633C97.3417 4.44206 97.549 5.13704 97.549 6.07129V11H95.9426V6.33789C95.9426 5.75911 95.8309 5.32845 95.6076 5.0459C95.3889 4.75879 95.0471 4.61523 94.5822 4.61523C93.9579 4.61523 93.4999 4.8112 93.2082 5.20312C92.9211 5.59049 92.7775 6.1875 92.7775 6.99414V11ZM107.663 11.1367C106.706 11.1367 105.963 10.7926 105.434 10.1045H105.339C105.402 10.7425 105.434 11.1299 105.434 11.2666V14.3633H103.828V3.43945H105.127C105.163 3.58073 105.238 3.91797 105.352 4.45117H105.434C105.936 3.68555 106.688 3.30273 107.69 3.30273C108.634 3.30273 109.367 3.64453 109.891 4.32812C110.42 5.01172 110.684 5.97103 110.684 7.20605C110.684 8.44108 110.415 9.40495 109.878 10.0977C109.345 10.7904 108.606 11.1367 107.663 11.1367ZM107.273 4.61523C106.635 4.61523 106.168 4.80208 105.872 5.17578C105.58 5.54948 105.434 6.14648 105.434 6.9668V7.20605C105.434 8.12663 105.58 8.79427 105.872 9.20898C106.164 9.61914 106.64 9.82422 107.301 9.82422C107.857 9.82422 108.285 9.59635 108.586 9.14062C108.887 8.6849 109.037 8.03548 109.037 7.19238C109.037 6.34473 108.887 5.70443 108.586 5.27148C108.29 4.83398 107.852 4.61523 107.273 4.61523ZM116.586 3.30273C116.909 3.30273 117.176 3.32552 117.385 3.37109L117.228 4.86816C117 4.81348 116.763 4.78613 116.517 4.78613C115.875 4.78613 115.353 4.99577 114.952 5.41504C114.555 5.83431 114.357 6.37891 114.357 7.04883V11H112.751V3.43945H114.008L114.22 4.77246H114.302C114.553 4.32129 114.879 3.96354 115.28 3.69922C115.685 3.4349 116.121 3.30273 116.586 3.30273ZM125.7 7.20605C125.7 8.44108 125.383 9.40495 124.749 10.0977C124.116 10.7904 123.234 11.1367 122.104 11.1367C121.398 11.1367 120.773 10.9772 120.231 10.6582C119.689 10.3392 119.272 9.88118 118.98 9.28418C118.688 8.68717 118.542 7.99447 118.542 7.20605C118.542 5.98014 118.857 5.02311 119.486 4.33496C120.115 3.64681 121.001 3.30273 122.145 3.30273C123.239 3.30273 124.105 3.65592 124.743 4.3623C125.381 5.06413 125.7 6.01204 125.7 7.20605ZM120.197 7.20605C120.197 8.9515 120.842 9.82422 122.131 9.82422C123.407 9.82422 124.045 8.9515 124.045 7.20605C124.045 5.47884 123.403 4.61523 122.118 4.61523C121.443 4.61523 120.953 4.83854 120.648 5.28516C120.347 5.73177 120.197 6.37207 120.197 7.20605ZM130.569 9.83789C130.96 9.83789 131.352 9.77637 131.744 9.65332V10.8633C131.567 10.9408 131.336 11.0046 131.054 11.0547C130.776 11.1094 130.487 11.1367 130.186 11.1367C128.664 11.1367 127.903 10.3346 127.903 8.73047V4.65625H126.87V3.94531L127.978 3.35742L128.525 1.75781H129.516V3.43945H131.669V4.65625H129.516V8.70312C129.516 9.09049 129.612 9.3776 129.803 9.56445C129.999 9.74674 130.254 9.83789 130.569 9.83789ZM140.168 7.20605C140.168 8.44108 139.851 9.40495 139.218 10.0977C138.584 10.7904 137.702 11.1367 136.572 11.1367C135.866 11.1367 135.242 10.9772 134.699 10.6582C134.157 10.3392 133.74 9.88118 133.448 9.28418C133.157 8.68717 133.011 7.99447 133.011 7.20605C133.011 5.98014 133.325 5.02311 133.954 4.33496C134.583 3.64681 135.469 3.30273 136.613 3.30273C137.707 3.30273 138.573 3.65592 139.211 4.3623C139.849 5.06413 140.168 6.01204 140.168 7.20605ZM134.665 7.20605C134.665 8.9515 135.31 9.82422 136.6 9.82422C137.876 9.82422 138.514 8.9515 138.514 7.20605C138.514 5.47884 137.871 4.61523 136.586 4.61523C135.911 4.61523 135.422 4.83854 135.116 5.28516C134.815 5.73177 134.665 6.37207 134.665 7.20605ZM145.269 11.1367C144.125 11.1367 143.255 10.804 142.658 10.1387C142.066 9.46875 141.769 8.50944 141.769 7.26074C141.769 5.98926 142.079 5.01172 142.699 4.32812C143.323 3.64453 144.223 3.30273 145.399 3.30273C146.197 3.30273 146.915 3.45085 147.553 3.74707L147.067 5.03906C146.388 4.77474 145.828 4.64258 145.386 4.64258C144.078 4.64258 143.424 5.51074 143.424 7.24707C143.424 8.09473 143.585 8.73275 143.909 9.16113C144.237 9.58496 144.716 9.79688 145.345 9.79688C146.06 9.79688 146.737 9.61914 147.375 9.26367V10.665C147.088 10.8337 146.78 10.9544 146.452 11.0273C146.128 11.1003 145.734 11.1367 145.269 11.1367ZM156.058 7.20605C156.058 8.44108 155.741 9.40495 155.108 10.0977C154.475 10.7904 153.593 11.1367 152.462 11.1367C151.756 11.1367 151.132 10.9772 150.589 10.6582C150.047 10.3392 149.63 9.88118 149.338 9.28418C149.047 8.68717 148.901 7.99447 148.901 7.20605C148.901 5.98014 149.215 5.02311 149.844 4.33496C150.473 3.64681 151.36 3.30273 152.504 3.30273C153.597 3.30273 154.463 3.65592 155.101 4.3623C155.739 5.06413 156.058 6.01204 156.058 7.20605ZM150.555 7.20605C150.555 8.9515 151.2 9.82422 152.49 9.82422C153.766 9.82422 154.404 8.9515 154.404 7.20605C154.404 5.47884 153.761 4.61523 152.476 4.61523C151.802 4.61523 151.312 4.83854 151.006 5.28516C150.706 5.73177 150.555 6.37207 150.555 7.20605ZM159.717 11H158.111V0.363281H159.717V11ZM168.927 7.20605C168.927 8.44108 168.61 9.40495 167.977 10.0977C167.343 10.7904 166.461 11.1367 165.331 11.1367C164.625 11.1367 164.001 10.9772 163.458 10.6582C162.916 10.3392 162.499 9.88118 162.207 9.28418C161.916 8.68717 161.77 7.99447 161.77 7.20605C161.77 5.98014 162.084 5.02311 162.713 4.33496C163.342 3.64681 164.228 3.30273 165.372 3.30273C166.466 3.30273 167.332 3.65592 167.97 4.3623C168.608 5.06413 168.927 6.01204 168.927 7.20605ZM163.424 7.20605C163.424 8.9515 164.069 9.82422 165.359 9.82422C166.635 9.82422 167.273 8.9515 167.273 7.20605C167.273 5.47884 166.63 4.61523 165.345 4.61523C164.67 4.61523 164.181 4.83854 163.875 5.28516C163.574 5.73177 163.424 6.37207 163.424 7.20605ZM178.651 11.1367C177.694 11.1367 176.951 10.7926 176.423 10.1045H176.327C176.391 10.7425 176.423 11.1299 176.423 11.2666V14.3633H174.816V3.43945H176.115C176.151 3.58073 176.227 3.91797 176.341 4.45117H176.423C176.924 3.68555 177.676 3.30273 178.679 3.30273C179.622 3.30273 180.356 3.64453 180.88 4.32812C181.408 5.01172 181.673 5.97103 181.673 7.20605C181.673 8.44108 181.404 9.40495 180.866 10.0977C180.333 10.7904 179.595 11.1367 178.651 11.1367ZM178.262 4.61523C177.623 4.61523 177.156 4.80208 176.86 5.17578C176.568 5.54948 176.423 6.14648 176.423 6.9668V7.20605C176.423 8.12663 176.568 8.79427 176.86 9.20898C177.152 9.61914 177.628 9.82422 178.289 9.82422C178.845 9.82422 179.273 9.59635 179.574 9.14062C179.875 8.6849 180.025 8.03548 180.025 7.19238C180.025 6.34473 179.875 5.70443 179.574 5.27148C179.278 4.83398 178.84 4.61523 178.262 4.61523ZM188.469 11L188.148 9.94727H188.093C187.729 10.4076 187.362 10.722 186.993 10.8906C186.624 11.0547 186.15 11.1367 185.571 11.1367C184.828 11.1367 184.247 10.9362 183.828 10.5352C183.413 10.1341 183.206 9.56673 183.206 8.83301C183.206 8.05371 183.495 7.46582 184.074 7.06934C184.653 6.67285 185.534 6.45638 186.719 6.41992L188.025 6.37891V5.97559C188.025 5.49251 187.911 5.13249 187.683 4.89551C187.46 4.65397 187.111 4.5332 186.637 4.5332C186.25 4.5332 185.879 4.59017 185.523 4.7041C185.168 4.81803 184.826 4.95247 184.498 5.10742L183.978 3.95898C184.388 3.74479 184.837 3.58301 185.325 3.47363C185.812 3.3597 186.273 3.30273 186.706 3.30273C187.667 3.30273 188.392 3.51237 188.879 3.93164C189.372 4.35091 189.618 5.00944 189.618 5.90723V11H188.469ZM186.077 9.90625C186.66 9.90625 187.127 9.74447 187.478 9.4209C187.834 9.09277 188.011 8.63477 188.011 8.04688V7.39062L187.041 7.43164C186.284 7.45898 185.733 7.58659 185.386 7.81445C185.045 8.03776 184.874 8.38184 184.874 8.84668C184.874 9.18392 184.974 9.44596 185.174 9.63281C185.375 9.8151 185.676 9.90625 186.077 9.90625ZM195.895 3.30273C196.218 3.30273 196.485 3.32552 196.695 3.37109L196.537 4.86816C196.31 4.81348 196.073 4.78613 195.827 4.78613C195.184 4.78613 194.662 4.99577 194.261 5.41504C193.865 5.83431 193.666 6.37891 193.666 7.04883V11H192.06V3.43945H193.318L193.53 4.77246H193.612C193.862 4.32129 194.188 3.96354 194.589 3.69922C194.995 3.4349 195.43 3.30273 195.895 3.30273ZM203.033 11L202.712 9.94727H202.657C202.293 10.4076 201.926 10.722 201.557 10.8906C201.188 11.0547 200.714 11.1367 200.135 11.1367C199.392 11.1367 198.811 10.9362 198.392 10.5352C197.977 10.1341 197.77 9.56673 197.77 8.83301C197.77 8.05371 198.059 7.46582 198.638 7.06934C199.217 6.67285 200.098 6.45638 201.283 6.41992L202.589 6.37891V5.97559C202.589 5.49251 202.475 5.13249 202.247 4.89551C202.024 4.65397 201.675 4.5332 201.201 4.5332C200.814 4.5332 200.443 4.59017 200.087 4.7041C199.732 4.81803 199.39 4.95247 199.062 5.10742L198.542 3.95898C198.952 3.74479 199.401 3.58301 199.889 3.47363C200.376 3.3597 200.837 3.30273 201.27 3.30273C202.231 3.30273 202.956 3.51237 203.444 3.93164C203.936 4.35091 204.182 5.00944 204.182 5.90723V11H203.033ZM200.641 9.90625C201.224 9.90625 201.691 9.74447 202.042 9.4209C202.398 9.09277 202.575 8.63477 202.575 8.04688V7.39062L201.605 7.43164C200.848 7.45898 200.297 7.58659 199.95 7.81445C199.609 8.03776 199.438 8.38184 199.438 8.84668C199.438 9.18392 199.538 9.44596 199.738 9.63281C199.939 9.8151 200.24 9.90625 200.641 9.90625ZM213.762 11.1367C212.587 11.1367 211.666 10.7949 211.001 10.1113C210.34 9.42318 210.01 8.47754 210.01 7.27441C210.01 6.03939 210.317 5.06868 210.932 4.3623C211.548 3.65592 212.393 3.30273 213.469 3.30273C214.467 3.30273 215.255 3.60579 215.834 4.21191C216.413 4.81803 216.702 5.65202 216.702 6.71387V7.58203H211.664C211.687 8.31576 211.885 8.88086 212.259 9.27734C212.632 9.66927 213.159 9.86523 213.838 9.86523C214.284 9.86523 214.699 9.82422 215.082 9.74219C215.469 9.6556 215.884 9.51432 216.326 9.31836V10.624C215.934 10.8109 215.538 10.943 215.137 11.0205C214.735 11.098 214.277 11.1367 213.762 11.1367ZM213.469 4.51953C212.958 4.51953 212.548 4.68132 212.238 5.00488C211.933 5.32845 211.75 5.80013 211.691 6.41992H215.123C215.114 5.79557 214.963 5.32389 214.672 5.00488C214.38 4.68132 213.979 4.51953 213.469 4.51953ZM223.806 8.84668C223.806 9.58496 223.537 10.1523 223 10.5488C222.462 10.9408 221.692 11.1367 220.689 11.1367C219.682 11.1367 218.873 10.984 218.262 10.6787V9.29102C219.151 9.70117 219.978 9.90625 220.744 9.90625C221.733 9.90625 222.227 9.60775 222.227 9.01074C222.227 8.81934 222.172 8.65983 222.063 8.53223C221.954 8.40462 221.774 8.27246 221.523 8.13574C221.272 7.99902 220.924 7.84408 220.477 7.6709C219.607 7.33366 219.017 6.99642 218.707 6.65918C218.401 6.32194 218.249 5.88444 218.249 5.34668C218.249 4.69954 218.508 4.19824 219.028 3.84277C219.552 3.48275 220.263 3.30273 221.161 3.30273C222.049 3.30273 222.89 3.48275 223.683 3.84277L223.164 5.05273C222.348 4.71549 221.662 4.54688 221.106 4.54688C220.258 4.54688 219.835 4.78841 219.835 5.27148C219.835 5.50846 219.944 5.70898 220.163 5.87305C220.386 6.03711 220.869 6.2627 221.612 6.5498C222.236 6.79134 222.69 7.01237 222.972 7.21289C223.255 7.41341 223.464 7.64583 223.601 7.91016C223.738 8.16992 223.806 8.4821 223.806 8.84668ZM230.829 8.84668C230.829 9.58496 230.56 10.1523 230.022 10.5488C229.484 10.9408 228.714 11.1367 227.711 11.1367C226.704 11.1367 225.895 10.984 225.285 10.6787V9.29102C226.173 9.70117 227 9.90625 227.766 9.90625C228.755 9.90625 229.249 9.60775 229.249 9.01074C229.249 8.81934 229.195 8.65983 229.085 8.53223C228.976 8.40462 228.796 8.27246 228.545 8.13574C228.295 7.99902 227.946 7.84408 227.499 7.6709C226.629 7.33366 226.039 6.99642 225.729 6.65918C225.424 6.32194 225.271 5.88444 225.271 5.34668C225.271 4.69954 225.531 4.19824 226.05 3.84277C226.574 3.48275 227.285 3.30273 228.183 3.30273C229.072 3.30273 229.912 3.48275 230.705 3.84277L230.186 5.05273C229.37 4.71549 228.684 4.54688 228.128 4.54688C227.281 4.54688 226.857 4.78841 226.857 5.27148C226.857 5.50846 226.966 5.70898 227.185 5.87305C227.408 6.03711 227.891 6.2627 228.634 6.5498C229.259 6.79134 229.712 7.01237 229.995 7.21289C230.277 7.41341 230.487 7.64583 230.623 7.91016C230.76 8.16992 230.829 8.4821 230.829 8.84668ZM237.502 11L237.181 9.94727H237.126C236.762 10.4076 236.395 10.722 236.026 10.8906C235.656 11.0547 235.182 11.1367 234.604 11.1367C233.861 11.1367 233.28 10.9362 232.861 10.5352C232.446 10.1341 232.238 9.56673 232.238 8.83301C232.238 8.05371 232.528 7.46582 233.107 7.06934C233.685 6.67285 234.567 6.45638 235.752 6.41992L237.058 6.37891V5.97559C237.058 5.49251 236.944 5.13249 236.716 4.89551C236.493 4.65397 236.144 4.5332 235.67 4.5332C235.283 4.5332 234.911 4.59017 234.556 4.7041C234.2 4.81803 233.859 4.95247 233.53 5.10742L233.011 3.95898C233.421 3.74479 233.87 3.58301 234.358 3.47363C234.845 3.3597 235.306 3.30273 235.738 3.30273C236.7 3.30273 237.425 3.51237 237.912 3.93164C238.404 4.35091 238.651 5.00944 238.651 5.90723V11H237.502ZM235.11 9.90625C235.693 9.90625 236.16 9.74447 236.511 9.4209C236.866 9.09277 237.044 8.63477 237.044 8.04688V7.39062L236.073 7.43164C235.317 7.45898 234.765 7.58659 234.419 7.81445C234.077 8.03776 233.906 8.38184 233.906 8.84668C233.906 9.18392 234.007 9.44596 234.207 9.63281C234.408 9.8151 234.709 9.90625 235.11 9.90625ZM246.536 11H244.929V0.363281H246.536V11ZM250.646 11H249.04V3.43945H250.646V11ZM248.944 1.43652C248.944 1.14941 249.021 0.928385 249.176 0.773438C249.336 0.61849 249.561 0.541016 249.853 0.541016C250.136 0.541016 250.354 0.61849 250.509 0.773438C250.669 0.928385 250.749 1.14941 250.749 1.43652C250.749 1.70996 250.669 1.92643 250.509 2.08594C250.354 2.24089 250.136 2.31836 249.853 2.31836C249.561 2.31836 249.336 2.24089 249.176 2.08594C249.021 1.92643 248.944 1.70996 248.944 1.43652ZM259.535 3.43945V4.32129L258.243 4.56055C258.361 4.72005 258.459 4.91602 258.537 5.14844C258.614 5.38086 258.653 5.62695 258.653 5.88672C258.653 6.66602 258.384 7.27897 257.846 7.72559C257.308 8.1722 256.568 8.39551 255.624 8.39551C255.383 8.39551 255.164 8.37728 254.968 8.34082C254.622 8.55501 254.449 8.80566 254.449 9.09277C254.449 9.26595 254.528 9.39583 254.688 9.48242C254.852 9.56901 255.15 9.6123 255.583 9.6123H256.903C257.737 9.6123 258.37 9.79004 258.803 10.1455C259.236 10.501 259.453 11.0137 259.453 11.6836C259.453 12.5404 259.099 13.2012 258.393 13.666C257.687 14.1309 256.666 14.3633 255.33 14.3633C254.301 14.3633 253.514 14.181 252.972 13.8164C252.43 13.4518 252.159 12.9323 252.159 12.2578C252.159 11.793 252.304 11.401 252.596 11.082C252.892 10.7676 253.305 10.5488 253.833 10.4258C253.619 10.3346 253.441 10.1888 253.3 9.98828C253.163 9.7832 253.095 9.56901 253.095 9.3457C253.095 9.06315 253.175 8.82389 253.334 8.62793C253.494 8.43197 253.731 8.23828 254.045 8.04688C253.653 7.87826 253.334 7.60482 253.088 7.22656C252.847 6.84375 252.726 6.39714 252.726 5.88672C252.726 5.06641 252.983 4.43066 253.498 3.97949C254.018 3.52832 254.756 3.30273 255.713 3.30273C255.927 3.30273 256.151 3.31868 256.383 3.35059C256.62 3.37793 256.798 3.40755 256.916 3.43945H259.535ZM253.594 12.1758C253.594 12.5221 253.749 12.7887 254.059 12.9756C254.373 13.1624 254.813 13.2559 255.378 13.2559C256.253 13.2559 256.905 13.1305 257.333 12.8799C257.762 12.6292 257.976 12.2965 257.976 11.8818C257.976 11.5537 257.857 11.319 257.62 11.1777C257.388 11.041 256.953 10.9727 256.315 10.9727H255.098C254.638 10.9727 254.271 11.0798 253.997 11.2939C253.729 11.5127 253.594 11.8066 253.594 12.1758ZM254.285 5.88672C254.285 6.36068 254.405 6.72526 254.647 6.98047C254.893 7.23568 255.244 7.36328 255.7 7.36328C256.629 7.36328 257.094 6.86654 257.094 5.87305C257.094 5.38086 256.978 5.0026 256.745 4.73828C256.518 4.4694 256.169 4.33496 255.7 4.33496C255.235 4.33496 254.882 4.46712 254.64 4.73145C254.403 4.99577 254.285 5.38086 254.285 5.88672ZM265.873 11L265.552 9.94727H265.497C265.133 10.4076 264.766 10.722 264.397 10.8906C264.028 11.0547 263.554 11.1367 262.975 11.1367C262.232 11.1367 261.651 10.9362 261.232 10.5352C260.817 10.1341 260.61 9.56673 260.61 8.83301C260.61 8.05371 260.899 7.46582 261.478 7.06934C262.056 6.67285 262.938 6.45638 264.123 6.41992L265.429 6.37891V5.97559C265.429 5.49251 265.315 5.13249 265.087 4.89551C264.864 4.65397 264.515 4.5332 264.041 4.5332C263.654 4.5332 263.282 4.59017 262.927 4.7041C262.571 4.81803 262.23 4.95247 261.902 5.10742L261.382 3.95898C261.792 3.74479 262.241 3.58301 262.729 3.47363C263.216 3.3597 263.677 3.30273 264.11 3.30273C265.071 3.30273 265.796 3.51237 266.283 3.93164C266.776 4.35091 267.022 5.00944 267.022 5.90723V11H265.873ZM263.481 9.90625C264.064 9.90625 264.531 9.74447 264.882 9.4209C265.237 9.09277 265.415 8.63477 265.415 8.04688V7.39062L264.445 7.43164C263.688 7.45898 263.137 7.58659 262.79 7.81445C262.448 8.03776 262.278 8.38184 262.278 8.84668C262.278 9.18392 262.378 9.44596 262.578 9.63281C262.779 9.8151 263.08 9.90625 263.481 9.90625ZM272.513 11.1367C271.369 11.1367 270.498 10.804 269.901 10.1387C269.309 9.46875 269.013 8.50944 269.013 7.26074C269.013 5.98926 269.323 5.01172 269.942 4.32812C270.567 3.64453 271.467 3.30273 272.643 3.30273C273.44 3.30273 274.158 3.45085 274.796 3.74707L274.311 5.03906C273.632 4.77474 273.071 4.64258 272.629 4.64258C271.321 4.64258 270.667 5.51074 270.667 7.24707C270.667 8.09473 270.829 8.73275 271.152 9.16113C271.48 9.58496 271.959 9.79688 272.588 9.79688C273.303 9.79688 273.98 9.61914 274.618 9.26367V10.665C274.331 10.8337 274.023 10.9544 273.695 11.0273C273.372 11.1003 272.978 11.1367 272.513 11.1367ZM273.661 12.8457C273.661 13.8574 272.966 14.3633 271.576 14.3633C271.275 14.3633 271 14.3291 270.749 14.2607V13.3242C270.995 13.388 271.275 13.4199 271.59 13.4199C271.836 13.4199 272.03 13.3812 272.171 13.3037C272.317 13.2308 272.39 13.0918 272.39 12.8867C272.39 12.4993 271.982 12.2487 271.166 12.1348L271.74 11H272.779L272.499 11.6016C272.864 11.6973 273.148 11.8522 273.354 12.0664C273.559 12.2852 273.661 12.5449 273.661 12.8457ZM281.326 11L281.005 9.94727H280.95C280.585 10.4076 280.219 10.722 279.849 10.8906C279.48 11.0547 279.006 11.1367 278.428 11.1367C277.685 11.1367 277.104 10.9362 276.684 10.5352C276.27 10.1341 276.062 9.56673 276.062 8.83301C276.062 8.05371 276.352 7.46582 276.93 7.06934C277.509 6.67285 278.391 6.45638 279.576 6.41992L280.882 6.37891V5.97559C280.882 5.49251 280.768 5.13249 280.54 4.89551C280.317 4.65397 279.968 4.5332 279.494 4.5332C279.107 4.5332 278.735 4.59017 278.38 4.7041C278.024 4.81803 277.682 4.95247 277.354 5.10742L276.835 3.95898C277.245 3.74479 277.694 3.58301 278.181 3.47363C278.669 3.3597 279.129 3.30273 279.562 3.30273C280.524 3.30273 281.248 3.51237 281.736 3.93164C282.228 4.35091 282.474 5.00944 282.474 5.90723V11H281.326ZM278.933 9.90625C279.517 9.90625 279.984 9.74447 280.335 9.4209C280.69 9.09277 280.868 8.63477 280.868 8.04688V7.39062L279.897 7.43164C279.141 7.45898 278.589 7.58659 278.243 7.81445C277.901 8.03776 277.73 8.38184 277.73 8.84668C277.73 9.18392 277.831 9.44596 278.031 9.63281C278.232 9.8151 278.532 9.90625 278.933 9.90625ZM280.56 2.5166C280.369 2.5166 280.18 2.47786 279.993 2.40039C279.811 2.31836 279.631 2.22949 279.453 2.13379C279.275 2.03353 279.102 1.94466 278.933 1.86719C278.765 1.78516 278.603 1.74414 278.448 1.74414C278.079 1.74414 277.831 2.00618 277.703 2.53027H276.869C276.924 1.89681 277.099 1.41374 277.395 1.08105C277.696 0.748372 278.079 0.582031 278.544 0.582031C278.74 0.582031 278.931 0.623047 279.118 0.705078C279.305 0.782552 279.487 0.871419 279.665 0.97168C279.843 1.06738 280.013 1.15625 280.178 1.23828C280.346 1.31576 280.508 1.35449 280.663 1.35449C281.023 1.35449 281.264 1.09245 281.387 0.568359H282.242C282.187 1.17904 282.012 1.65755 281.716 2.00391C281.419 2.3457 281.034 2.5166 280.56 2.5166ZM291.623 7.20605C291.623 8.44108 291.306 9.40495 290.672 10.0977C290.039 10.7904 289.157 11.1367 288.027 11.1367C287.321 11.1367 286.696 10.9772 286.154 10.6582C285.612 10.3392 285.195 9.88118 284.903 9.28418C284.611 8.68717 284.465 7.99447 284.465 7.20605C284.465 5.98014 284.78 5.02311 285.409 4.33496C286.038 3.64681 286.924 3.30273 288.068 3.30273C289.162 3.30273 290.028 3.65592 290.666 4.3623C291.304 5.06413 291.623 6.01204 291.623 7.20605ZM286.12 7.20605C286.12 8.9515 286.765 9.82422 288.054 9.82422C289.33 9.82422 289.968 8.9515 289.968 7.20605C289.968 5.47884 289.326 4.61523 288.041 4.61523C287.366 4.61523 286.876 4.83854 286.571 5.28516C286.27 5.73177 286.12 6.37207 286.12 7.20605Z" fill="#606060"/>
</svg>
